<mxfile host="app.diagrams.net" modified="2021-11-09T19:01:06.717Z" agent="5.0 (Windows NT 10.0; Win64; x64) AppleWebKit/537.36 (KHTML, like Gecko) Chrome/95.0.4638.69 Safari/537.36" etag="XBTXBA2TFqwEt5hBwukK" version="15.7.0" type="github">
  <diagram id="IoxDV228WmSA50J3DCnZ" name="Page-1">
    <mxGraphModel dx="730" dy="313" grid="1" gridSize="10" guides="1" tooltips="1" connect="1" arrows="1" fold="1" page="1" pageScale="1" pageWidth="1600" pageHeight="900" math="0" shadow="0">
      <root>
        <mxCell id="0" />
        <mxCell id="1" parent="0" />
        <mxCell id="0qCyWQJ1nT_JN0HQ5mWI-1" value="Persona" style="swimlane;childLayout=stackLayout;horizontal=1;startSize=30;horizontalStack=0;rounded=1;fontSize=14;fontStyle=0;strokeWidth=2;resizeParent=0;resizeLast=1;shadow=0;dashed=0;align=center;" vertex="1" parent="1">
          <mxGeometry x="280" y="120" width="160" height="150" as="geometry" />
        </mxCell>
        <mxCell id="0qCyWQJ1nT_JN0HQ5mWI-2" value="+id&#xa;+nombres&#xa;+apellidos&#xa;+correo&#xa;+celular&#xa;+clave" style="align=left;strokeColor=none;fillColor=none;spacingLeft=4;fontSize=12;verticalAlign=top;resizable=0;rotatable=0;part=1;" vertex="1" parent="0qCyWQJ1nT_JN0HQ5mWI-1">
          <mxGeometry y="30" width="160" height="120" as="geometry" />
        </mxCell>
        <mxCell id="0qCyWQJ1nT_JN0HQ5mWI-6" value="Pedido" style="swimlane;childLayout=stackLayout;horizontal=1;startSize=30;horizontalStack=0;rounded=1;fontSize=14;fontStyle=0;strokeWidth=2;resizeParent=0;resizeLast=1;shadow=0;dashed=0;align=center;" vertex="1" parent="1">
          <mxGeometry x="610" y="120" width="160" height="150" as="geometry" />
        </mxCell>
        <mxCell id="0qCyWQJ1nT_JN0HQ5mWI-7" value="+id&#xa;+id_producto&#xa;+cantidad&#xa;+total&#xa;+estado&#xa;+id_persona" style="align=left;strokeColor=none;fillColor=none;spacingLeft=4;fontSize=12;verticalAlign=top;resizable=0;rotatable=0;part=1;" vertex="1" parent="0qCyWQJ1nT_JN0HQ5mWI-6">
          <mxGeometry y="30" width="160" height="120" as="geometry" />
        </mxCell>
        <mxCell id="0qCyWQJ1nT_JN0HQ5mWI-8" value="pedido" style="swimlane;childLayout=stackLayout;horizontal=1;startSize=30;horizontalStack=0;rounded=1;fontSize=14;fontStyle=0;strokeWidth=2;resizeParent=0;resizeLast=1;shadow=0;dashed=0;align=center;" vertex="1" parent="1">
          <mxGeometry x="450" y="300" width="160" height="120" as="geometry" />
        </mxCell>
        <mxCell id="0qCyWQJ1nT_JN0HQ5mWI-9" value="+id&#xa;+nombre&#xa;+precio&#xa;+imagen" style="align=left;strokeColor=none;fillColor=none;spacingLeft=4;fontSize=12;verticalAlign=top;resizable=0;rotatable=0;part=1;" vertex="1" parent="0qCyWQJ1nT_JN0HQ5mWI-8">
          <mxGeometry y="30" width="160" height="90" as="geometry" />
        </mxCell>
      </root>
    </mxGraphModel>
  </diagram>
</mxfile>
